<?xml version="1.0" encoding="UTF-8" standalone="no"?>
<!DOCTYPE svg PUBLIC "-//W3C//DTD SVG 1.1//EN"
 "http://www.w3.org/Graphics/SVG/1.1/DTD/svg11.dtd">
<!-- Generated by graphviz version 2.26.3 (20100126.1600)
 -->
<!-- Title: foo Pages: 1 -->
<svg width="1883pt" height="2652pt"
 viewBox="0.00 0.00 1883.00 2652.00" xmlns="http://www.w3.org/2000/svg" xmlns:xlink="http://www.w3.org/1999/xlink">
<g id="graph1" class="graph" transform="scale(1 1) rotate(0) translate(4 2648)">
<title>foo</title>
<polygon fill="white" stroke="white" points="-4,5 -4,-2648 1880,-2648 1880,5 -4,5"/>
<!-- 1 -->
<g id="node1" class="node"><title>1</title>
<a xlink:title="1: assignment to []">
<ellipse fill="none" stroke="forestgreen" stroke-width="3" cx="313" cy="-2073" rx="147.078" ry="22.6274"/>
<text text-anchor="middle" x="313" y="-2067" font-family="Arial" font-size="20.00" fill="forestgreen">ass_1_C_Loop.f_0x1</text>
</a>
</g>
<!-- Ret_1 -->
<g id="node2" class="node"><title>Ret_1</title>
<polygon fill="none" stroke="forestgreen" stroke-width="3" points="350.051,-1950.86 350.051,-1971.14 328.347,-1985.49 297.653,-1985.49 275.949,-1971.14 275.949,-1950.86 297.653,-1936.51 328.347,-1936.51 350.051,-1950.86"/>
<polygon fill="none" stroke="forestgreen" stroke-width="3" points="354.003,-1948.69 354.003,-1973.31 329.523,-1989.49 296.477,-1989.49 271.997,-1973.31 271.997,-1948.69 296.477,-1932.51 329.523,-1932.51 354.003,-1948.69"/>
<text text-anchor="middle" x="313" y="-1955" font-family="Arial" font-size="20.00" fill="forestgreen">Ret</text>
</g>
<!-- 1&#45;&gt;Ret_1 -->
<g id="edge2" class="edge"><title>1&#45;&gt;Ret_1</title>
<path fill="none" stroke="forestgreen" stroke-width="3" d="M313,-2050.34C313,-2035.83 313,-2016.64 313,-1999.76"/>
<polygon fill="forestgreen" stroke="forestgreen" points="316.5,-1999.61 313,-1989.61 309.5,-1999.61 316.5,-1999.61"/>
<text text-anchor="middle" x="320.5" y="-2014" font-family="Arial" font-size="20.00" fill="forestgreen">N</text>
</g>
<!-- 2 -->
<g id="node4" class="node"><title>2</title>
<a xlink:title="2: assignment to [loop#2#count]">
<ellipse fill="none" stroke="forestgreen" stroke-width="3" cx="313" cy="-1376" rx="147.078" ry="22.6274"/>
<text text-anchor="middle" x="313" y="-1370" font-family="Arial" font-size="20.00" fill="forestgreen">ass_2_C_Loop.f_0x2</text>
</a>
</g>
<!-- 37 -->
<g id="node6" class="node"><title>37</title>
<a xlink:title="37: assignment to []">
<ellipse fill="none" stroke="forestgreen" stroke-width="3" cx="190" cy="-1261" rx="190.212" ry="22.6274"/>
<text text-anchor="middle" x="190" y="-1255" font-family="Arial" font-size="20.00" fill="forestgreen">ass_37_C_LoopReturn_0x3</text>
</a>
</g>
<!-- 2&#45;&gt;37 -->
<g id="edge4" class="edge"><title>2&#45;&gt;37</title>
<path fill="none" stroke="forestgreen" stroke-width="3" d="M288.992,-1353.55C269.69,-1335.51 242.419,-1310.01 221.387,-1290.35"/>
<polygon fill="forestgreen" stroke="forestgreen" points="223.642,-1287.66 213.947,-1283.39 218.861,-1292.78 223.642,-1287.66"/>
<text text-anchor="middle" x="267" y="-1308" font-family="Arial" font-size="20.00" fill="forestgreen">C</text>
</g>
<!-- 3 -->
<g id="node7" class="node"><title>3</title>
<a xlink:title="3: conditional node">
<ellipse fill="none" stroke="forestgreen" stroke-width="3" cx="313" cy="-2188" rx="115.966" ry="22.6274"/>
<text text-anchor="middle" x="313" y="-2182" font-family="Arial" font-size="20.00" fill="forestgreen">3_C_Loop.f_0x3</text>
</a>
</g>
<!-- 37&#45;&gt;3 -->
<g id="edge94" class="edge"><title>37&#45;&gt;3</title>
<path fill="none" stroke="forestgreen" stroke-width="3" d="M172.973,-1283.44C157.808,-1305.69 138,-1341.38 138,-1376 138,-2073 138,-2073 138,-2073 138,-2121.11 184.765,-2150.21 229.945,-2167.1"/>
<polygon fill="forestgreen" stroke="forestgreen" points="228.95,-2170.46 239.545,-2170.52 231.3,-2163.87 228.95,-2170.46"/>
<text text-anchor="middle" x="145.5" y="-1715" font-family="Arial" font-size="20.00" fill="forestgreen">N</text>
</g>
<!-- 3&#45;&gt;1 -->
<g id="edge8" class="edge"><title>3&#45;&gt;1</title>
<path fill="none" stroke="forestgreen" stroke-width="3" d="M313,-2165.28C313,-2148.27 313,-2124.75 313,-2105.72"/>
<polygon fill="forestgreen" stroke="forestgreen" points="316.5,-2105.67 313,-2095.67 309.5,-2105.67 316.5,-2105.67"/>
<text text-anchor="middle" x="319.5" y="-2120" font-family="Arial" font-size="20.00" fill="forestgreen">F</text>
</g>
<!-- 10 -->
<g id="node9" class="node"><title>10</title>
<a xlink:title="10: call to &#39;Loop.g&#39;">
<ellipse fill="none" stroke="forestgreen" stroke-width="3" cx="635" cy="-2073" rx="157.184" ry="22.6274"/>
<text text-anchor="middle" x="635" y="-2067" font-family="Arial" font-size="20.00" fill="forestgreen">fcall_10_C_Loop.f_0xa</text>
</a>
</g>
<!-- 3&#45;&gt;10 -->
<g id="edge6" class="edge"><title>3&#45;&gt;10</title>
<path fill="none" stroke="forestgreen" stroke-width="3" d="M368.721,-2168.1C423.71,-2148.46 507.877,-2118.4 566.826,-2097.35"/>
<polygon fill="forestgreen" stroke="forestgreen" points="568.187,-2100.58 576.427,-2093.92 565.833,-2093.99 568.187,-2100.58"/>
<text text-anchor="middle" x="519.5" y="-2120" font-family="Arial" font-size="20.00" fill="forestgreen">T</text>
</g>
<!-- 9 -->
<g id="node26" class="node"><title>9</title>
<a xlink:title="9: assignment to [ret__int#v]">
<ellipse fill="none" stroke="forestgreen" stroke-width="3" cx="635" cy="-1961" rx="147.078" ry="22.6274"/>
<text text-anchor="middle" x="635" y="-1955" font-family="Arial" font-size="20.00" fill="forestgreen">ass_9_C_Loop.f_0x9</text>
</a>
</g>
<!-- 10&#45;&gt;9 -->
<g id="edge26" class="edge"><title>10&#45;&gt;9</title>
<path fill="none" stroke="forestgreen" stroke-width="3" d="M635,-2050.34C635,-2034.09 635,-2011.96 635,-1993.8"/>
<polygon fill="forestgreen" stroke="forestgreen" points="638.5,-1993.63 635,-1983.63 631.5,-1993.63 638.5,-1993.63"/>
<text text-anchor="middle" x="643" y="-2014" font-family="Arial" font-size="20.00" fill="forestgreen">C</text>
</g>
<!-- 4 -->
<g id="node11" class="node"><title>4</title>
<a xlink:title="4: assignment to [loop#2#count]">
<ellipse fill="none" stroke="forestgreen" stroke-width="3" cx="313" cy="-2409" rx="147.078" ry="22.6274"/>
<text text-anchor="middle" x="313" y="-2403" font-family="Arial" font-size="20.00" fill="forestgreen">ass_4_C_Loop.f_0x4</text>
</a>
</g>
<!-- 38 -->
<g id="node13" class="node"><title>38</title>
<a xlink:title="38: assignment to []">
<ellipse fill="none" stroke="forestgreen" stroke-width="3" cx="313" cy="-2303" rx="176.984" ry="22.6274"/>
<text text-anchor="middle" x="313" y="-2297" font-family="Arial" font-size="20.00" fill="forestgreen">ass_38_C_MergePadding</text>
</a>
</g>
<!-- 4&#45;&gt;38 -->
<g id="edge10" class="edge"><title>4&#45;&gt;38</title>
<path fill="none" stroke="forestgreen" stroke-width="3" d="M313,-2386.26C313,-2371.59 313,-2352.27 313,-2335.93"/>
<polygon fill="forestgreen" stroke="forestgreen" points="316.5,-2335.7 313,-2325.7 309.5,-2335.7 316.5,-2335.7"/>
<text text-anchor="middle" x="321" y="-2350" font-family="Arial" font-size="20.00" fill="forestgreen">C</text>
</g>
<!-- 38&#45;&gt;3 -->
<g id="edge96" class="edge"><title>38&#45;&gt;3</title>
<path fill="none" stroke="forestgreen" stroke-width="3" d="M313,-2280.28C313,-2263.27 313,-2239.75 313,-2220.72"/>
<polygon fill="forestgreen" stroke="forestgreen" points="316.5,-2220.67 313,-2210.67 309.5,-2220.67 316.5,-2220.67"/>
<text text-anchor="middle" x="320.5" y="-2244" font-family="Arial" font-size="20.00" fill="forestgreen">N</text>
</g>
<!-- 5 -->
<g id="node14" class="node"><title>5</title>
<a xlink:title="5: assignment to [i#v]">
<ellipse fill="none" stroke="forestgreen" stroke-width="3" cx="313" cy="-1491" rx="147.078" ry="22.6274"/>
<text text-anchor="middle" x="313" y="-1485" font-family="Arial" font-size="20.00" fill="forestgreen">ass_5_C_Loop.f_0x5</text>
</a>
</g>
<!-- 5&#45;&gt;2 -->
<g id="edge12" class="edge"><title>5&#45;&gt;2</title>
<path fill="none" stroke="forestgreen" stroke-width="3" d="M313,-1468.28C313,-1451.27 313,-1427.75 313,-1408.72"/>
<polygon fill="forestgreen" stroke="forestgreen" points="316.5,-1408.67 313,-1398.67 309.5,-1408.67 316.5,-1408.67"/>
<text text-anchor="middle" x="321" y="-1432" font-family="Arial" font-size="20.00" fill="forestgreen">C</text>
</g>
<!-- 6 -->
<g id="node16" class="node"><title>6</title>
<a xlink:title="6: conditional node">
<ellipse fill="none" stroke="forestgreen" stroke-width="3" cx="434" cy="-1606" rx="115.966" ry="22.6274"/>
<text text-anchor="middle" x="434" y="-1600" font-family="Arial" font-size="20.00" fill="forestgreen">6_C_Loop.f_0x6</text>
</a>
</g>
<!-- 6&#45;&gt;5 -->
<g id="edge14" class="edge"><title>6&#45;&gt;5</title>
<path fill="none" stroke="forestgreen" stroke-width="3" d="M410.67,-1583.83C391.709,-1565.81 364.797,-1540.23 344.021,-1520.48"/>
<polygon fill="forestgreen" stroke="forestgreen" points="346.331,-1517.85 336.671,-1513.5 341.509,-1522.92 346.331,-1517.85"/>
<text text-anchor="middle" x="387.5" y="-1538" font-family="Arial" font-size="20.00" fill="forestgreen">T</text>
</g>
<!-- 40 -->
<g id="node19" class="node"><title>40</title>
<a xlink:title="40: assignment to []">
<ellipse fill="none" stroke="forestgreen" stroke-width="3" cx="655" cy="-1491" rx="176.984" ry="22.6274"/>
<text text-anchor="middle" x="655" y="-1485" font-family="Arial" font-size="20.00" fill="forestgreen">ass_40_C_MergePadding</text>
</a>
</g>
<!-- 6&#45;&gt;40 -->
<g id="edge16" class="edge"><title>6&#45;&gt;40</title>
<path fill="none" stroke="forestgreen" stroke-width="3" d="M474.535,-1584.91C510.874,-1566 564.363,-1538.16 603.676,-1517.71"/>
<polygon fill="forestgreen" stroke="forestgreen" points="605.587,-1520.66 612.842,-1512.94 602.356,-1514.45 605.587,-1520.66"/>
<text text-anchor="middle" x="577.5" y="-1538" font-family="Arial" font-size="20.00" fill="forestgreen">F</text>
</g>
<!-- Err_40 -->
<g id="node98" class="node"><title>Err_40</title>
<polygon fill="none" stroke="forestgreen" stroke-width="3" points="655,-1408 611,-1376 655,-1344 699,-1376 655,-1408"/>
<polyline fill="none" stroke="forestgreen" stroke-width="3" points="620.705,-1383.06 620.705,-1368.94 "/>
<polyline fill="none" stroke="forestgreen" stroke-width="3" points="645.295,-1351.06 664.705,-1351.06 "/>
<polyline fill="none" stroke="forestgreen" stroke-width="3" points="689.295,-1368.94 689.295,-1383.06 "/>
<polyline fill="none" stroke="forestgreen" stroke-width="3" points="664.705,-1400.94 645.295,-1400.94 "/>
<text text-anchor="middle" x="655" y="-1370" font-family="Arial" font-size="20.00" fill="forestgreen">Err</text>
</g>
<!-- 40&#45;&gt;Err_40 -->
<g id="edge100" class="edge"><title>40&#45;&gt;Err_40</title>
<path fill="none" stroke="forestgreen" stroke-width="3" d="M655,-1468.28C655,-1454.08 655,-1435.34 655,-1418.46"/>
<polygon fill="forestgreen" stroke="forestgreen" points="658.5,-1418.25 655,-1408.25 651.5,-1418.25 658.5,-1418.25"/>
<text text-anchor="middle" x="662.5" y="-1432" font-family="Arial" font-size="20.00" fill="forestgreen">N</text>
</g>
<!-- 7 -->
<g id="node20" class="node"><title>7</title>
<a xlink:title="7: assignment to [Mem]">
<ellipse fill="none" stroke="forestgreen" stroke-width="3" cx="434" cy="-1721" rx="147.078" ry="22.6274"/>
<text text-anchor="middle" x="434" y="-1715" font-family="Arial" font-size="20.00" fill="forestgreen">ass_7_C_Loop.f_0x7</text>
</a>
</g>
<!-- 7&#45;&gt;6 -->
<g id="edge18" class="edge"><title>7&#45;&gt;6</title>
<path fill="none" stroke="forestgreen" stroke-width="3" d="M434,-1698.28C434,-1681.27 434,-1657.75 434,-1638.72"/>
<polygon fill="forestgreen" stroke="forestgreen" points="437.5,-1638.67 434,-1628.67 430.5,-1638.67 437.5,-1638.67"/>
<text text-anchor="middle" x="442" y="-1662" font-family="Arial" font-size="20.00" fill="forestgreen">C</text>
</g>
<!-- 8 -->
<g id="node22" class="node"><title>8</title>
<a xlink:title="8: conditional node">
<ellipse fill="none" stroke="forestgreen" stroke-width="3" cx="635" cy="-1827" rx="115.966" ry="22.6274"/>
<text text-anchor="middle" x="635" y="-1821" font-family="Arial" font-size="20.00" fill="forestgreen">8_C_Loop.f_0x8</text>
</a>
</g>
<!-- 8&#45;&gt;7 -->
<g id="edge20" class="edge"><title>8&#45;&gt;7</title>
<path fill="none" stroke="forestgreen" stroke-width="3" d="M594.808,-1805.8C562.942,-1789 518.241,-1765.43 484.054,-1747.4"/>
<polygon fill="forestgreen" stroke="forestgreen" points="485.636,-1744.27 475.158,-1742.7 482.37,-1750.47 485.636,-1744.27"/>
<text text-anchor="middle" x="559.5" y="-1768" font-family="Arial" font-size="20.00" fill="forestgreen">T</text>
</g>
<!-- 41 -->
<g id="node25" class="node"><title>41</title>
<a xlink:title="41: assignment to []">
<ellipse fill="none" stroke="forestgreen" stroke-width="3" cx="776" cy="-1721" rx="176.984" ry="22.6274"/>
<text text-anchor="middle" x="776" y="-1715" font-family="Arial" font-size="20.00" fill="forestgreen">ass_41_C_MergePadding</text>
</a>
</g>
<!-- 8&#45;&gt;41 -->
<g id="edge22" class="edge"><title>8&#45;&gt;41</title>
<path fill="none" stroke="forestgreen" stroke-width="3" d="M664.215,-1805.04C685.624,-1788.94 714.875,-1766.95 738.085,-1749.5"/>
<polygon fill="forestgreen" stroke="forestgreen" points="740.447,-1752.11 746.337,-1743.3 736.241,-1746.51 740.447,-1752.11"/>
<text text-anchor="middle" x="725.5" y="-1768" font-family="Arial" font-size="20.00" fill="forestgreen">F</text>
</g>
<!-- Err_41 -->
<g id="node100" class="node"><title>Err_41</title>
<polygon fill="none" stroke="forestgreen" stroke-width="3" points="776,-1638 732,-1606 776,-1574 820,-1606 776,-1638"/>
<polyline fill="none" stroke="forestgreen" stroke-width="3" points="741.705,-1613.06 741.705,-1598.94 "/>
<polyline fill="none" stroke="forestgreen" stroke-width="3" points="766.295,-1581.06 785.705,-1581.06 "/>
<polyline fill="none" stroke="forestgreen" stroke-width="3" points="810.295,-1598.94 810.295,-1613.06 "/>
<polyline fill="none" stroke="forestgreen" stroke-width="3" points="785.705,-1630.94 766.295,-1630.94 "/>
<text text-anchor="middle" x="776" y="-1600" font-family="Arial" font-size="20.00" fill="forestgreen">Err</text>
</g>
<!-- 41&#45;&gt;Err_41 -->
<g id="edge102" class="edge"><title>41&#45;&gt;Err_41</title>
<path fill="none" stroke="forestgreen" stroke-width="3" d="M776,-1698.28C776,-1684.08 776,-1665.34 776,-1648.46"/>
<polygon fill="forestgreen" stroke="forestgreen" points="779.5,-1648.25 776,-1638.25 772.5,-1648.25 779.5,-1648.25"/>
<text text-anchor="middle" x="783.5" y="-1662" font-family="Arial" font-size="20.00" fill="forestgreen">N</text>
</g>
<!-- 9&#45;&gt;8 -->
<g id="edge24" class="edge"><title>9&#45;&gt;8</title>
<path fill="none" stroke="forestgreen" stroke-width="3" d="M635,-1938.27C635,-1916.8 635,-1884.37 635,-1860.05"/>
<polygon fill="forestgreen" stroke="forestgreen" points="638.5,-1859.84 635,-1849.84 631.5,-1859.84 638.5,-1859.84"/>
<text text-anchor="middle" x="643" y="-1885" font-family="Arial" font-size="20.00" fill="forestgreen">C</text>
</g>
<!-- 11 -->
<g id="node29" class="node"><title>11</title>
<a xlink:title="11: assignment to [i#v]">
<ellipse fill="none" stroke="forestgreen" stroke-width="3" cx="313" cy="-2515" rx="154.856" ry="22.6274"/>
<text text-anchor="middle" x="313" y="-2509" font-family="Arial" font-size="20.00" fill="forestgreen">ass_11_C_Loop.f_0xb</text>
</a>
</g>
<!-- 11&#45;&gt;4 -->
<g id="edge28" class="edge"><title>11&#45;&gt;4</title>
<path fill="none" stroke="forestgreen" stroke-width="3" d="M313,-2492.26C313,-2477.59 313,-2458.27 313,-2441.93"/>
<polygon fill="forestgreen" stroke="forestgreen" points="316.5,-2441.7 313,-2431.7 309.5,-2441.7 316.5,-2441.7"/>
<text text-anchor="middle" x="321" y="-2456" font-family="Arial" font-size="20.00" fill="forestgreen">C</text>
</g>
<!-- 12 -->
<g id="node31" class="node"><title>12</title>
<a xlink:title="12: assignment to []">
<ellipse fill="none" stroke="forestgreen" stroke-width="3" cx="313" cy="-2621" rx="162.134" ry="22.6274"/>
<text text-anchor="middle" x="313" y="-2615" font-family="Arial" font-size="20.00" fill="forestgreen">ass_12_C_Loop.f_0x11</text>
</a>
</g>
<!-- 12&#45;&gt;11 -->
<g id="edge30" class="edge"><title>12&#45;&gt;11</title>
<path fill="none" stroke="forestgreen" stroke-width="3" d="M313,-2598.26C313,-2583.59 313,-2564.27 313,-2547.93"/>
<polygon fill="forestgreen" stroke="forestgreen" points="316.5,-2547.7 313,-2537.7 309.5,-2547.7 316.5,-2547.7"/>
<text text-anchor="middle" x="320.5" y="-2562" font-family="Arial" font-size="20.00" fill="forestgreen">N</text>
</g>
<!-- 13 -->
<g id="node33" class="node"><title>13</title>
<a xlink:title="13: assignment to [stack, r13]">
<ellipse fill="none" stroke="darkorange" stroke-width="3" cx="1084" cy="-2303" rx="138.801" ry="22.6274"/>
<text text-anchor="middle" x="1084" y="-2297" font-family="Arial" font-size="20.00" fill="darkorange">ass_13_ASM_f_0x1</text>
</a>
</g>
<!-- 22 -->
<g id="node35" class="node"><title>22</title>
<a xlink:title="22: assignment to [v, c, z, n]">
<ellipse fill="none" stroke="darkorange" stroke-width="3" cx="1084" cy="-2188" rx="147.785" ry="22.6274"/>
<text text-anchor="middle" x="1084" y="-2182" font-family="Arial" font-size="20.00" fill="darkorange">ass_22_ASM_f_0x10</text>
</a>
</g>
<!-- 13&#45;&gt;22 -->
<g id="edge32" class="edge"><title>13&#45;&gt;22</title>
<path fill="none" stroke="darkorange" stroke-width="3" d="M1084,-2280.28C1084,-2263.27 1084,-2239.75 1084,-2220.72"/>
<polygon fill="darkorange" stroke="darkorange" points="1087.5,-2220.67 1084,-2210.67 1080.5,-2220.67 1087.5,-2220.67"/>
<text text-anchor="middle" x="1092" y="-2244" font-family="Arial" font-size="20.00" fill="darkorange">C</text>
</g>
<!-- 24 -->
<g id="node61" class="node"><title>24</title>
<a xlink:title="24: conditional node">
<ellipse fill="none" stroke="darkorange" stroke-width="3" cx="1084" cy="-2073" rx="116.172" ry="22.6274"/>
<text text-anchor="middle" x="1084" y="-2067" font-family="Arial" font-size="20.00" fill="darkorange">24_ASM_f_0x14</text>
</a>
</g>
<!-- 22&#45;&gt;24 -->
<g id="edge52" class="edge"><title>22&#45;&gt;24</title>
<path fill="none" stroke="darkorange" stroke-width="3" d="M1084,-2165.28C1084,-2148.27 1084,-2124.75 1084,-2105.72"/>
<polygon fill="darkorange" stroke="darkorange" points="1087.5,-2105.67 1084,-2095.67 1080.5,-2105.67 1087.5,-2105.67"/>
<text text-anchor="middle" x="1092" y="-2120" font-family="Arial" font-size="20.00" fill="darkorange">C</text>
</g>
<!-- 14 -->
<g id="node36" class="node"><title>14</title>
<a xlink:title="14: assignment to []">
<ellipse fill="none" stroke="darkorange" stroke-width="3" cx="982" cy="-1891" rx="138.801" ry="22.6274"/>
<text text-anchor="middle" x="982" y="-1885" font-family="Arial" font-size="20.00" fill="darkorange">ass_14_ASM_f_0x3</text>
</a>
</g>
<!-- 35 -->
<g id="node38" class="node"><title>35</title>
<a xlink:title="35: conditional node">
<ellipse fill="none" stroke="darkorange" stroke-width="3" cx="1105" cy="-483" rx="116.172" ry="22.6274"/>
<text text-anchor="middle" x="1105" y="-477" font-family="Arial" font-size="20.00" fill="darkorange">35_ASM_f_0x38</text>
</a>
</g>
<!-- 14&#45;&gt;35 -->
<g id="edge34" class="edge"><title>14&#45;&gt;35</title>
<path fill="none" stroke="darkorange" stroke-width="3" d="M981.689,-1868.13C981.396,-1844.55 981,-1806.7 981,-1774 981,-1774 981,-1774 981,-589 981,-552.11 1013.1,-525.318 1044.64,-507.899"/>
<polygon fill="darkorange" stroke="darkorange" points="1046.28,-510.992 1053.49,-503.233 1043.01,-504.799 1046.28,-510.992"/>
<text text-anchor="middle" x="988.5" y="-1202" font-family="Arial" font-size="20.00" fill="darkorange">N</text>
</g>
<!-- 21 -->
<g id="node57" class="node"><title>21</title>
<a xlink:title="21: assignment to [r14, r5, r4, r3, r13]">
<ellipse fill="none" stroke="darkorange" stroke-width="3" cx="1008" cy="-377" rx="135.057" ry="22.6274"/>
<text text-anchor="middle" x="1008" y="-371" font-family="Arial" font-size="20.00" fill="darkorange">ass_21_ASM_f_0xf</text>
</a>
</g>
<!-- 35&#45;&gt;21 -->
<g id="edge86" class="edge"><title>35&#45;&gt;21</title>
<path fill="none" stroke="darkorange" stroke-width="3" d="M1084.67,-460.779C1070.41,-445.196 1051.17,-424.18 1035.54,-407.096"/>
<polygon fill="darkorange" stroke="darkorange" points="1037.97,-404.571 1028.64,-399.557 1032.81,-409.297 1037.97,-404.571"/>
<text text-anchor="middle" x="1072.5" y="-424" font-family="Arial" font-size="20.00" fill="darkorange">T</text>
</g>
<!-- 45 -->
<g id="node91" class="node"><title>45</title>
<a xlink:title="45: assignment to []">
<ellipse fill="none" stroke="darkorange" stroke-width="3" cx="1359" cy="-377" rx="198.197" ry="22.6274"/>
<text text-anchor="middle" x="1359" y="-371" font-family="Arial" font-size="20.00" fill="darkorange">ass_45_ASM_MergePadding</text>
</a>
</g>
<!-- 35&#45;&gt;45 -->
<g id="edge88" class="edge"><title>35&#45;&gt;45</title>
<path fill="none" stroke="darkorange" stroke-width="3" d="M1153.97,-462.562C1194.8,-445.523 1253.2,-421.154 1297.23,-402.778"/>
<polygon fill="darkorange" stroke="darkorange" points="1298.8,-405.916 1306.68,-398.835 1296.1,-399.456 1298.8,-405.916"/>
<text text-anchor="middle" x="1261.5" y="-424" font-family="Arial" font-size="20.00" fill="darkorange">F</text>
</g>
<!-- 15 -->
<g id="node39" class="node"><title>15</title>
<a xlink:title="15: assignment to []">
<ellipse fill="none" stroke="darkorange" stroke-width="3" cx="1155" cy="-1961" rx="138.801" ry="22.6274"/>
<text text-anchor="middle" x="1155" y="-1955" font-family="Arial" font-size="20.00" fill="darkorange">ass_15_ASM_f_0x5</text>
</a>
</g>
<!-- 25 -->
<g id="node41" class="node"><title>25</title>
<a xlink:title="25: assignment to [r5]">
<ellipse fill="none" stroke="darkorange" stroke-width="3" cx="1182" cy="-1827" rx="147.785" ry="22.6274"/>
<text text-anchor="middle" x="1182" y="-1821" font-family="Arial" font-size="20.00" fill="darkorange">ass_25_ASM_f_0x18</text>
</a>
</g>
<!-- 15&#45;&gt;25 -->
<g id="edge36" class="edge"><title>15&#45;&gt;25</title>
<path fill="none" stroke="darkorange" stroke-width="3" d="M1159.58,-1938.27C1163.92,-1916.71 1170.5,-1884.08 1175.41,-1859.72"/>
<polygon fill="darkorange" stroke="darkorange" points="1178.85,-1860.34 1177.4,-1849.84 1171.99,-1858.95 1178.85,-1860.34"/>
<text text-anchor="middle" x="1181.5" y="-1885" font-family="Arial" font-size="20.00" fill="darkorange">N</text>
</g>
<!-- 26 -->
<g id="node68" class="node"><title>26</title>
<a xlink:title="26: assignment to [r4]">
<ellipse fill="none" stroke="darkorange" stroke-width="3" cx="1200" cy="-1721" rx="147.078" ry="22.6274"/>
<text text-anchor="middle" x="1200" y="-1715" font-family="Arial" font-size="20.00" fill="darkorange">ass_26_ASM_f_0x1c</text>
</a>
</g>
<!-- 25&#45;&gt;26 -->
<g id="edge60" class="edge"><title>25&#45;&gt;26</title>
<path fill="none" stroke="darkorange" stroke-width="3" d="M1185.86,-1804.26C1188.35,-1789.59 1191.63,-1770.27 1194.41,-1753.93"/>
<polygon fill="darkorange" stroke="darkorange" points="1197.92,-1754.15 1196.14,-1743.7 1191.02,-1752.97 1197.92,-1754.15"/>
<text text-anchor="middle" x="1201" y="-1768" font-family="Arial" font-size="20.00" fill="darkorange">C</text>
</g>
<!-- 16 -->
<g id="node42" class="node"><title>16</title>
<a xlink:title="16: call to &#39;g&#39;">
<ellipse fill="none" stroke="darkorange" stroke-width="3" cx="1319" cy="-1261" rx="142.128" ry="22.6274"/>
<text text-anchor="middle" x="1319" y="-1255" font-family="Arial" font-size="20.00" fill="darkorange">fcall_16_ASM_f_0x7</text>
</a>
</g>
<!-- 30 -->
<g id="node44" class="node"><title>30</title>
<a xlink:title="30: conditional node">
<ellipse fill="none" stroke="darkorange" stroke-width="3" cx="1322" cy="-1146" rx="116.172" ry="22.6274"/>
<text text-anchor="middle" x="1322" y="-1140" font-family="Arial" font-size="20.00" fill="darkorange">30_ASM_f_0x28</text>
</a>
</g>
<!-- 16&#45;&gt;30 -->
<g id="edge38" class="edge"><title>16&#45;&gt;30</title>
<path fill="none" stroke="darkorange" stroke-width="3" d="M1319.59,-1238.28C1320.04,-1221.27 1320.65,-1197.75 1321.15,-1178.72"/>
<polygon fill="darkorange" stroke="darkorange" points="1324.65,-1178.76 1321.41,-1168.67 1317.65,-1178.58 1324.65,-1178.76"/>
<text text-anchor="middle" x="1329" y="-1202" font-family="Arial" font-size="20.00" fill="darkorange">C</text>
</g>
<!-- 17 -->
<g id="node45" class="node"><title>17</title>
<a xlink:title="17: assignment to [mem, r5]">
<ellipse fill="none" stroke="darkorange" stroke-width="3" cx="1322" cy="-1031" rx="138.801" ry="22.6274"/>
<text text-anchor="middle" x="1322" y="-1025" font-family="Arial" font-size="20.00" fill="darkorange">ass_17_ASM_f_0x9</text>
</a>
</g>
<!-- 30&#45;&gt;17 -->
<g id="edge72" class="edge"><title>30&#45;&gt;17</title>
<path fill="none" stroke="darkorange" stroke-width="3" d="M1322,-1123.28C1322,-1106.27 1322,-1082.75 1322,-1063.72"/>
<polygon fill="darkorange" stroke="darkorange" points="1325.5,-1063.67 1322,-1053.67 1318.5,-1063.67 1325.5,-1063.67"/>
<text text-anchor="middle" x="1328.5" y="-1078" font-family="Arial" font-size="20.00" fill="darkorange">T</text>
</g>
<!-- 44 -->
<g id="node80" class="node"><title>44</title>
<a xlink:title="44: assignment to []">
<ellipse fill="none" stroke="darkorange" stroke-width="3" cx="1677" cy="-1031" rx="198.197" ry="22.6274"/>
<text text-anchor="middle" x="1677" y="-1025" font-family="Arial" font-size="20.00" fill="darkorange">ass_44_ASM_MergePadding</text>
</a>
</g>
<!-- 30&#45;&gt;44 -->
<g id="edge74" class="edge"><title>30&#45;&gt;44</title>
<path fill="none" stroke="darkorange" stroke-width="3" d="M1381.82,-1126.62C1442.25,-1107.05 1535.79,-1076.74 1601.34,-1055.51"/>
<polygon fill="darkorange" stroke="darkorange" points="1602.77,-1058.73 1611.2,-1052.32 1600.61,-1052.07 1602.77,-1058.73"/>
<text text-anchor="middle" x="1547.5" y="-1078" font-family="Arial" font-size="20.00" fill="darkorange">F</text>
</g>
<!-- 31 -->
<g id="node47" class="node"><title>31</title>
<a xlink:title="31: assignment to [r4]">
<ellipse fill="none" stroke="darkorange" stroke-width="3" cx="1324" cy="-916" rx="147.078" ry="22.6274"/>
<text text-anchor="middle" x="1324" y="-910" font-family="Arial" font-size="20.00" fill="darkorange">ass_31_ASM_f_0x2c</text>
</a>
</g>
<!-- 17&#45;&gt;31 -->
<g id="edge40" class="edge"><title>17&#45;&gt;31</title>
<path fill="none" stroke="darkorange" stroke-width="3" d="M1322.4,-1008.28C1322.69,-991.269 1323.1,-967.753 1323.43,-948.717"/>
<polygon fill="darkorange" stroke="darkorange" points="1326.93,-948.732 1323.61,-938.673 1319.93,-948.611 1326.93,-948.732"/>
<text text-anchor="middle" x="1332" y="-972" font-family="Arial" font-size="20.00" fill="darkorange">C</text>
</g>
<!-- 32 -->
<g id="node82" class="node"><title>32</title>
<a xlink:title="32: assignment to [v, c, z, n]">
<ellipse fill="none" stroke="darkorange" stroke-width="3" cx="1324" cy="-801" rx="147.785" ry="22.6274"/>
<text text-anchor="middle" x="1324" y="-795" font-family="Arial" font-size="20.00" fill="darkorange">ass_32_ASM_f_0x30</text>
</a>
</g>
<!-- 31&#45;&gt;32 -->
<g id="edge76" class="edge"><title>31&#45;&gt;32</title>
<path fill="none" stroke="darkorange" stroke-width="3" d="M1324,-893.28C1324,-876.269 1324,-852.753 1324,-833.717"/>
<polygon fill="darkorange" stroke="darkorange" points="1327.5,-833.673 1324,-823.673 1320.5,-833.673 1327.5,-833.673"/>
<text text-anchor="middle" x="1332" y="-848" font-family="Arial" font-size="20.00" fill="darkorange">C</text>
</g>
<!-- 18 -->
<g id="node48" class="node"><title>18</title>
<a xlink:title="18: assignment to []">
<ellipse fill="none" stroke="darkorange" stroke-width="3" cx="1148" cy="-589" rx="138.801" ry="22.6274"/>
<text text-anchor="middle" x="1148" y="-583" font-family="Arial" font-size="20.00" fill="darkorange">ass_18_ASM_f_0xb</text>
</a>
</g>
<!-- 27 -->
<g id="node50" class="node"><title>27</title>
<a xlink:title="27: assignment to [r0]">
<ellipse fill="none" stroke="darkorange" stroke-width="3" cx="1207" cy="-1491" rx="147.785" ry="22.6274"/>
<text text-anchor="middle" x="1207" y="-1485" font-family="Arial" font-size="20.00" fill="darkorange">ass_27_ASM_f_0x20</text>
</a>
</g>
<!-- 18&#45;&gt;27 -->
<g id="edge42" class="edge"><title>18&#45;&gt;27</title>
<path fill="none" stroke="darkorange" stroke-width="3" d="M1148,-611.745C1148,-633.21 1148,-666.292 1148,-695 1148,-1376 1148,-1376 1148,-1376 1148,-1407.1 1165.29,-1438.24 1181.16,-1460.25"/>
<polygon fill="darkorange" stroke="darkorange" points="1178.55,-1462.61 1187.35,-1468.51 1184.15,-1458.41 1178.55,-1462.61"/>
<text text-anchor="middle" x="1155.5" y="-1025" font-family="Arial" font-size="20.00" fill="darkorange">N</text>
</g>
<!-- 29 -->
<g id="node72" class="node"><title>29</title>
<a xlink:title="29: conditional node">
<ellipse fill="none" stroke="darkorange" stroke-width="3" cx="1319" cy="-1376" rx="116.172" ry="22.6274"/>
<text text-anchor="middle" x="1319" y="-1370" font-family="Arial" font-size="20.00" fill="darkorange">29_ASM_f_0x24</text>
</a>
</g>
<!-- 27&#45;&gt;29 -->
<g id="edge64" class="edge"><title>27&#45;&gt;29</title>
<path fill="none" stroke="darkorange" stroke-width="3" d="M1228.86,-1468.55C1246.36,-1450.59 1271.05,-1425.23 1290.17,-1405.6"/>
<polygon fill="darkorange" stroke="darkorange" points="1292.72,-1408 1297.19,-1398.39 1287.71,-1403.11 1292.72,-1408"/>
<text text-anchor="middle" x="1278" y="-1432" font-family="Arial" font-size="20.00" fill="darkorange">C</text>
</g>
<!-- 19 -->
<g id="node51" class="node"><title>19</title>
<a xlink:title="19: conditional node">
<ellipse fill="none" stroke="darkorange" stroke-width="3" cx="1261" cy="-2409" rx="108.187" ry="22.6274"/>
<text text-anchor="middle" x="1261" y="-2403" font-family="Arial" font-size="20.00" fill="darkorange">19_ASM_f_0xc</text>
</a>
</g>
<!-- 19&#45;&gt;13 -->
<g id="edge44" class="edge"><title>19&#45;&gt;13</title>
<path fill="none" stroke="darkorange" stroke-width="3" d="M1225.18,-2387.55C1197.53,-2370.99 1159.1,-2347.98 1129.32,-2330.14"/>
<polygon fill="darkorange" stroke="darkorange" points="1130.75,-2326.92 1120.37,-2324.78 1127.15,-2332.92 1130.75,-2326.92"/>
<text text-anchor="middle" x="1195.5" y="-2350" font-family="Arial" font-size="20.00" fill="darkorange">T</text>
</g>
<!-- 42 -->
<g id="node54" class="node"><title>42</title>
<a xlink:title="42: assignment to []">
<ellipse fill="none" stroke="darkorange" stroke-width="3" cx="1439" cy="-2303" rx="198.197" ry="22.6274"/>
<text text-anchor="middle" x="1439" y="-2297" font-family="Arial" font-size="20.00" fill="darkorange">ass_42_ASM_MergePadding</text>
</a>
</g>
<!-- 19&#45;&gt;42 -->
<g id="edge46" class="edge"><title>19&#45;&gt;42</title>
<path fill="none" stroke="darkorange" stroke-width="3" d="M1297.02,-2387.55C1324.64,-2371.1 1362.96,-2348.28 1392.83,-2330.49"/>
<polygon fill="darkorange" stroke="darkorange" points="1395.01,-2333.27 1401.81,-2325.15 1391.42,-2327.26 1395.01,-2333.27"/>
<text text-anchor="middle" x="1372.5" y="-2350" font-family="Arial" font-size="20.00" fill="darkorange">F</text>
</g>
<!-- Err_42 -->
<g id="node102" class="node"><title>Err_42</title>
<polygon fill="none" stroke="darkorange" stroke-width="3" points="1439,-2220 1395,-2188 1439,-2156 1483,-2188 1439,-2220"/>
<polyline fill="none" stroke="darkorange" stroke-width="3" points="1404.7,-2195.06 1404.7,-2180.94 "/>
<polyline fill="none" stroke="darkorange" stroke-width="3" points="1429.3,-2163.06 1448.7,-2163.06 "/>
<polyline fill="none" stroke="darkorange" stroke-width="3" points="1473.3,-2180.94 1473.3,-2195.06 "/>
<polyline fill="none" stroke="darkorange" stroke-width="3" points="1448.7,-2212.94 1429.3,-2212.94 "/>
<text text-anchor="middle" x="1439" y="-2182" font-family="Arial" font-size="20.00" fill="darkorange">Err</text>
</g>
<!-- 42&#45;&gt;Err_42 -->
<g id="edge104" class="edge"><title>42&#45;&gt;Err_42</title>
<path fill="none" stroke="darkorange" stroke-width="3" d="M1439,-2280.28C1439,-2266.08 1439,-2247.34 1439,-2230.46"/>
<polygon fill="darkorange" stroke="darkorange" points="1442.5,-2230.25 1439,-2220.25 1435.5,-2230.25 1442.5,-2230.25"/>
<text text-anchor="middle" x="1446.5" y="-2244" font-family="Arial" font-size="20.00" fill="darkorange">N</text>
</g>
<!-- 20 -->
<g id="node55" class="node"><title>20</title>
<a xlink:title="20: assignment to []">
<ellipse fill="none" stroke="darkorange" stroke-width="3" cx="1444" cy="-589" rx="138.801" ry="22.6274"/>
<text text-anchor="middle" x="1444" y="-583" font-family="Arial" font-size="20.00" fill="darkorange">ass_20_ASM_f_0xd</text>
</a>
</g>
<!-- 20&#45;&gt;35 -->
<g id="edge48" class="edge"><title>20&#45;&gt;35</title>
<path fill="none" stroke="darkorange" stroke-width="3" d="M1379.84,-568.938C1321.74,-550.772 1236.3,-524.054 1176.13,-505.242"/>
<polygon fill="darkorange" stroke="darkorange" points="1176.92,-501.821 1166.33,-502.177 1174.83,-508.502 1176.92,-501.821"/>
<text text-anchor="middle" x="1312.5" y="-530" font-family="Arial" font-size="20.00" fill="darkorange">N</text>
</g>
<!-- 36 -->
<g id="node59" class="node"><title>36</title>
<a xlink:title="36: conditional node">
<ellipse fill="none" stroke="darkorange" stroke-width="3" cx="1008" cy="-262" rx="115.966" ry="22.6274"/>
<text text-anchor="middle" x="1008" y="-256" font-family="Arial" font-size="20.00" fill="darkorange">36_ASM_f_0x3c</text>
</a>
</g>
<!-- 21&#45;&gt;36 -->
<g id="edge50" class="edge"><title>21&#45;&gt;36</title>
<path fill="none" stroke="darkorange" stroke-width="3" d="M1008,-354.28C1008,-337.269 1008,-313.753 1008,-294.717"/>
<polygon fill="darkorange" stroke="darkorange" points="1011.5,-294.673 1008,-284.673 1004.5,-294.673 1011.5,-294.673"/>
<text text-anchor="middle" x="1016" y="-318" font-family="Arial" font-size="20.00" fill="darkorange">C</text>
</g>
<!-- 23 -->
<g id="node62" class="node"><title>23</title>
<a xlink:title="23: assignment to []">
<ellipse fill="none" stroke="darkorange" stroke-width="3" cx="908" cy="-147" rx="147.785" ry="22.6274"/>
<text text-anchor="middle" x="908" y="-141" font-family="Arial" font-size="20.00" fill="darkorange">ass_23_ASM_f_0x11</text>
</a>
</g>
<!-- 36&#45;&gt;23 -->
<g id="edge90" class="edge"><title>36&#45;&gt;23</title>
<path fill="none" stroke="darkorange" stroke-width="3" d="M988.482,-239.554C972.995,-221.744 951.2,-196.68 934.196,-177.125"/>
<polygon fill="darkorange" stroke="darkorange" points="936.672,-174.639 927.469,-169.39 931.39,-179.232 936.672,-174.639"/>
<text text-anchor="middle" x="970.5" y="-194" font-family="Arial" font-size="20.00" fill="darkorange">T</text>
</g>
<!-- 46 -->
<g id="node94" class="node"><title>46</title>
<a xlink:title="46: assignment to []">
<ellipse fill="none" stroke="darkorange" stroke-width="3" cx="1272" cy="-147" rx="198.197" ry="22.6274"/>
<text text-anchor="middle" x="1272" y="-141" font-family="Arial" font-size="20.00" fill="darkorange">ass_46_ASM_MergePadding</text>
</a>
</g>
<!-- 36&#45;&gt;46 -->
<g id="edge92" class="edge"><title>36&#45;&gt;46</title>
<path fill="none" stroke="darkorange" stroke-width="3" d="M1055.2,-241.44C1099.14,-222.301 1164.81,-193.692 1212.36,-172.98"/>
<polygon fill="darkorange" stroke="darkorange" points="1213.84,-176.15 1221.62,-168.948 1211.05,-169.733 1213.84,-176.15"/>
<text text-anchor="middle" x="1178.5" y="-194" font-family="Arial" font-size="20.00" fill="darkorange">F</text>
</g>
<!-- 24&#45;&gt;14 -->
<g id="edge56" class="edge"><title>24&#45;&gt;14</title>
<path fill="none" stroke="darkorange" stroke-width="3" d="M1057.52,-2050.87C1040.69,-2035.45 1019.76,-2013.49 1007,-1990 995.831,-1969.44 989.533,-1943.76 986.053,-1923.71"/>
<polygon fill="darkorange" stroke="darkorange" points="989.503,-1923.12 984.479,-1913.8 982.59,-1924.22 989.503,-1923.12"/>
<text text-anchor="middle" x="1044.5" y="-2014" font-family="Arial" font-size="20.00" fill="darkorange">T</text>
</g>
<!-- 24&#45;&gt;15 -->
<g id="edge58" class="edge"><title>24&#45;&gt;15</title>
<path fill="none" stroke="darkorange" stroke-width="3" d="M1098.2,-2050.6C1108.77,-2033.93 1123.34,-2010.94 1135.08,-1992.42"/>
<polygon fill="darkorange" stroke="darkorange" points="1138.19,-1994.06 1140.58,-1983.74 1132.27,-1990.31 1138.19,-1994.06"/>
<text text-anchor="middle" x="1130.5" y="-2014" font-family="Arial" font-size="20.00" fill="darkorange">F</text>
</g>
<!-- Ret_23 -->
<g id="node63" class="node"><title>Ret_23</title>
<polygon fill="none" stroke="darkorange" stroke-width="3" points="945.051,-21.8552 945.051,-42.1448 923.347,-56.4917 892.653,-56.4917 870.949,-42.1448 870.949,-21.8552 892.653,-7.50826 923.347,-7.50826 945.051,-21.8552"/>
<polygon fill="none" stroke="darkorange" stroke-width="3" points="949.003,-19.69 949.003,-44.31 924.523,-60.4917 891.477,-60.4917 866.997,-44.31 866.997,-19.69 891.477,-3.50826 924.523,-3.50826 949.003,-19.69"/>
<text text-anchor="middle" x="908" y="-26" font-family="Arial" font-size="20.00" fill="darkorange">Ret</text>
</g>
<!-- 23&#45;&gt;Ret_23 -->
<g id="edge54" class="edge"><title>23&#45;&gt;Ret_23</title>
<path fill="none" stroke="darkorange" stroke-width="3" d="M908,-124.28C908,-109.068 908,-88.654 908,-70.8943"/>
<polygon fill="darkorange" stroke="darkorange" points="911.5,-70.8037 908,-60.8037 904.5,-70.8038 911.5,-70.8037"/>
<text text-anchor="middle" x="915.5" y="-88" font-family="Arial" font-size="20.00" fill="darkorange">N</text>
</g>
<!-- 39 -->
<g id="node70" class="node"><title>39</title>
<a xlink:title="39: assignment to []">
<ellipse fill="none" stroke="darkorange" stroke-width="3" cx="1207" cy="-1606" rx="198.197" ry="22.6274"/>
<text text-anchor="middle" x="1207" y="-1600" font-family="Arial" font-size="20.00" fill="darkorange">ass_39_ASM_MergePadding</text>
</a>
</g>
<!-- 26&#45;&gt;39 -->
<g id="edge62" class="edge"><title>26&#45;&gt;39</title>
<path fill="none" stroke="darkorange" stroke-width="3" d="M1201.38,-1698.28C1202.42,-1681.27 1203.85,-1657.75 1205.01,-1638.72"/>
<polygon fill="darkorange" stroke="darkorange" points="1208.51,-1638.87 1205.62,-1628.67 1201.52,-1638.44 1208.51,-1638.87"/>
<text text-anchor="middle" x="1212" y="-1662" font-family="Arial" font-size="20.00" fill="darkorange">C</text>
</g>
<!-- 39&#45;&gt;27 -->
<g id="edge98" class="edge"><title>39&#45;&gt;27</title>
<path fill="none" stroke="darkorange" stroke-width="3" d="M1207,-1583.28C1207,-1566.27 1207,-1542.75 1207,-1523.72"/>
<polygon fill="darkorange" stroke="darkorange" points="1210.5,-1523.67 1207,-1513.67 1203.5,-1523.67 1210.5,-1523.67"/>
<text text-anchor="middle" x="1214.5" y="-1538" font-family="Arial" font-size="20.00" fill="darkorange">N</text>
</g>
<!-- 29&#45;&gt;16 -->
<g id="edge68" class="edge"><title>29&#45;&gt;16</title>
<path fill="none" stroke="darkorange" stroke-width="3" d="M1319,-1353.28C1319,-1336.27 1319,-1312.75 1319,-1293.72"/>
<polygon fill="darkorange" stroke="darkorange" points="1322.5,-1293.67 1319,-1283.67 1315.5,-1293.67 1322.5,-1293.67"/>
<text text-anchor="middle" x="1325.5" y="-1308" font-family="Arial" font-size="20.00" fill="darkorange">T</text>
</g>
<!-- 43 -->
<g id="node77" class="node"><title>43</title>
<a xlink:title="43: assignment to []">
<ellipse fill="none" stroke="darkorange" stroke-width="3" cx="1677" cy="-1261" rx="198.197" ry="22.6274"/>
<text text-anchor="middle" x="1677" y="-1255" font-family="Arial" font-size="20.00" fill="darkorange">ass_43_ASM_MergePadding</text>
</a>
</g>
<!-- 29&#45;&gt;43 -->
<g id="edge70" class="edge"><title>29&#45;&gt;43</title>
<path fill="none" stroke="darkorange" stroke-width="3" d="M1379.32,-1356.62C1440.48,-1336.98 1535.28,-1306.52 1601.41,-1285.28"/>
<polygon fill="darkorange" stroke="darkorange" points="1602.5,-1288.61 1610.95,-1282.22 1600.36,-1281.94 1602.5,-1288.61"/>
<text text-anchor="middle" x="1546.5" y="-1308" font-family="Arial" font-size="20.00" fill="darkorange">F</text>
</g>
<!-- 28 -->
<g id="node73" class="node"><title>28</title>
<a xlink:title="28: assignment to []">
<ellipse fill="none" stroke="darkorange" stroke-width="3" cx="1261" cy="-2515" rx="147.785" ry="22.6274"/>
<text text-anchor="middle" x="1261" y="-2509" font-family="Arial" font-size="20.00" fill="darkorange">ass_28_ASM_f_0x21</text>
</a>
</g>
<!-- 28&#45;&gt;19 -->
<g id="edge66" class="edge"><title>28&#45;&gt;19</title>
<path fill="none" stroke="darkorange" stroke-width="3" d="M1261,-2492.26C1261,-2477.59 1261,-2458.27 1261,-2441.93"/>
<polygon fill="darkorange" stroke="darkorange" points="1264.5,-2441.7 1261,-2431.7 1257.5,-2441.7 1264.5,-2441.7"/>
<text text-anchor="middle" x="1268.5" y="-2456" font-family="Arial" font-size="20.00" fill="darkorange">N</text>
</g>
<!-- Err_43 -->
<g id="node104" class="node"><title>Err_43</title>
<polygon fill="none" stroke="darkorange" stroke-width="3" points="1677,-1178 1633,-1146 1677,-1114 1721,-1146 1677,-1178"/>
<polyline fill="none" stroke="darkorange" stroke-width="3" points="1642.7,-1153.06 1642.7,-1138.94 "/>
<polyline fill="none" stroke="darkorange" stroke-width="3" points="1667.3,-1121.06 1686.7,-1121.06 "/>
<polyline fill="none" stroke="darkorange" stroke-width="3" points="1711.3,-1138.94 1711.3,-1153.06 "/>
<polyline fill="none" stroke="darkorange" stroke-width="3" points="1686.7,-1170.94 1667.3,-1170.94 "/>
<text text-anchor="middle" x="1677" y="-1140" font-family="Arial" font-size="20.00" fill="darkorange">Err</text>
</g>
<!-- 43&#45;&gt;Err_43 -->
<g id="edge106" class="edge"><title>43&#45;&gt;Err_43</title>
<path fill="none" stroke="darkorange" stroke-width="3" d="M1677,-1238.28C1677,-1224.08 1677,-1205.34 1677,-1188.46"/>
<polygon fill="darkorange" stroke="darkorange" points="1680.5,-1188.25 1677,-1178.25 1673.5,-1188.25 1680.5,-1188.25"/>
<text text-anchor="middle" x="1684.5" y="-1202" font-family="Arial" font-size="20.00" fill="darkorange">N</text>
</g>
<!-- Err_44 -->
<g id="node106" class="node"><title>Err_44</title>
<polygon fill="none" stroke="darkorange" stroke-width="3" points="1677,-948 1633,-916 1677,-884 1721,-916 1677,-948"/>
<polyline fill="none" stroke="darkorange" stroke-width="3" points="1642.7,-923.058 1642.7,-908.942 "/>
<polyline fill="none" stroke="darkorange" stroke-width="3" points="1667.3,-891.058 1686.7,-891.058 "/>
<polyline fill="none" stroke="darkorange" stroke-width="3" points="1711.3,-908.942 1711.3,-923.058 "/>
<polyline fill="none" stroke="darkorange" stroke-width="3" points="1686.7,-940.942 1667.3,-940.942 "/>
<text text-anchor="middle" x="1677" y="-910" font-family="Arial" font-size="20.00" fill="darkorange">Err</text>
</g>
<!-- 44&#45;&gt;Err_44 -->
<g id="edge108" class="edge"><title>44&#45;&gt;Err_44</title>
<path fill="none" stroke="darkorange" stroke-width="3" d="M1677,-1008.28C1677,-994.077 1677,-975.341 1677,-958.463"/>
<polygon fill="darkorange" stroke="darkorange" points="1680.5,-958.251 1677,-948.251 1673.5,-958.251 1680.5,-958.251"/>
<text text-anchor="middle" x="1684.5" y="-972" font-family="Arial" font-size="20.00" fill="darkorange">N</text>
</g>
<!-- 34 -->
<g id="node84" class="node"><title>34</title>
<a xlink:title="34: conditional node">
<ellipse fill="none" stroke="darkorange" stroke-width="3" cx="1324" cy="-695" rx="116.172" ry="22.6274"/>
<text text-anchor="middle" x="1324" y="-689" font-family="Arial" font-size="20.00" fill="darkorange">34_ASM_f_0x34</text>
</a>
</g>
<!-- 32&#45;&gt;34 -->
<g id="edge78" class="edge"><title>32&#45;&gt;34</title>
<path fill="none" stroke="darkorange" stroke-width="3" d="M1324,-778.26C1324,-763.589 1324,-744.266 1324,-727.928"/>
<polygon fill="darkorange" stroke="darkorange" points="1327.5,-727.702 1324,-717.702 1320.5,-727.702 1327.5,-727.702"/>
<text text-anchor="middle" x="1332" y="-742" font-family="Arial" font-size="20.00" fill="darkorange">C</text>
</g>
<!-- 34&#45;&gt;18 -->
<g id="edge82" class="edge"><title>34&#45;&gt;18</title>
<path fill="none" stroke="darkorange" stroke-width="3" d="M1288.38,-673.549C1260.89,-656.993 1222.68,-633.977 1193.06,-616.139"/>
<polygon fill="darkorange" stroke="darkorange" points="1194.54,-612.944 1184.17,-610.783 1190.93,-618.94 1194.54,-612.944"/>
<text text-anchor="middle" x="1258.5" y="-636" font-family="Arial" font-size="20.00" fill="darkorange">T</text>
</g>
<!-- 34&#45;&gt;20 -->
<g id="edge84" class="edge"><title>34&#45;&gt;20</title>
<path fill="none" stroke="darkorange" stroke-width="3" d="M1349.16,-672.779C1367.24,-656.808 1391.78,-635.131 1411.37,-617.828"/>
<polygon fill="darkorange" stroke="darkorange" points="1413.7,-620.435 1418.88,-611.192 1409.07,-615.189 1413.7,-620.435"/>
<text text-anchor="middle" x="1401.5" y="-636" font-family="Arial" font-size="20.00" fill="darkorange">F</text>
</g>
<!-- 33 -->
<g id="node85" class="node"><title>33</title>
<a xlink:title="33: assignment to [orig_r0]">
<ellipse fill="none" stroke="darkorange" stroke-width="3" cx="1261" cy="-2621" rx="147.785" ry="22.6274"/>
<text text-anchor="middle" x="1261" y="-2615" font-family="Arial" font-size="20.00" fill="darkorange">ass_33_ASM_f_0x31</text>
</a>
</g>
<!-- 33&#45;&gt;28 -->
<g id="edge80" class="edge"><title>33&#45;&gt;28</title>
<path fill="none" stroke="darkorange" stroke-width="3" d="M1261,-2598.26C1261,-2583.59 1261,-2564.27 1261,-2547.93"/>
<polygon fill="darkorange" stroke="darkorange" points="1264.5,-2547.7 1261,-2537.7 1257.5,-2547.7 1264.5,-2547.7"/>
<text text-anchor="middle" x="1269" y="-2562" font-family="Arial" font-size="20.00" fill="darkorange">C</text>
</g>
<!-- Err_45 -->
<g id="node108" class="node"><title>Err_45</title>
<polygon fill="none" stroke="darkorange" stroke-width="3" points="1359,-294 1315,-262 1359,-230 1403,-262 1359,-294"/>
<polyline fill="none" stroke="darkorange" stroke-width="3" points="1324.7,-269.058 1324.7,-254.942 "/>
<polyline fill="none" stroke="darkorange" stroke-width="3" points="1349.3,-237.058 1368.7,-237.058 "/>
<polyline fill="none" stroke="darkorange" stroke-width="3" points="1393.3,-254.942 1393.3,-269.058 "/>
<polyline fill="none" stroke="darkorange" stroke-width="3" points="1368.7,-286.942 1349.3,-286.942 "/>
<text text-anchor="middle" x="1359" y="-256" font-family="Arial" font-size="20.00" fill="darkorange">Err</text>
</g>
<!-- 45&#45;&gt;Err_45 -->
<g id="edge110" class="edge"><title>45&#45;&gt;Err_45</title>
<path fill="none" stroke="darkorange" stroke-width="3" d="M1359,-354.28C1359,-340.077 1359,-321.341 1359,-304.463"/>
<polygon fill="darkorange" stroke="darkorange" points="1362.5,-304.251 1359,-294.251 1355.5,-304.251 1362.5,-304.251"/>
<text text-anchor="middle" x="1366.5" y="-318" font-family="Arial" font-size="20.00" fill="darkorange">N</text>
</g>
<!-- Err_46 -->
<g id="node110" class="node"><title>Err_46</title>
<polygon fill="none" stroke="darkorange" stroke-width="3" points="1272,-64 1228,-32 1272,-7.10543e-15 1316,-32 1272,-64"/>
<polyline fill="none" stroke="darkorange" stroke-width="3" points="1237.7,-39.0581 1237.7,-24.9419 "/>
<polyline fill="none" stroke="darkorange" stroke-width="3" points="1262.3,-7.05806 1281.7,-7.05806 "/>
<polyline fill="none" stroke="darkorange" stroke-width="3" points="1306.3,-24.9419 1306.3,-39.0581 "/>
<polyline fill="none" stroke="darkorange" stroke-width="3" points="1281.7,-56.9419 1262.3,-56.9419 "/>
<text text-anchor="middle" x="1272" y="-26" font-family="Arial" font-size="20.00" fill="darkorange">Err</text>
</g>
<!-- 46&#45;&gt;Err_46 -->
<g id="edge112" class="edge"><title>46&#45;&gt;Err_46</title>
<path fill="none" stroke="darkorange" stroke-width="3" d="M1272,-124.28C1272,-110.077 1272,-91.3405 1272,-74.4628"/>
<polygon fill="darkorange" stroke="darkorange" points="1275.5,-74.2514 1272,-64.2514 1268.5,-74.2514 1275.5,-74.2514"/>
<text text-anchor="middle" x="1279.5" y="-88" font-family="Arial" font-size="20.00" fill="darkorange">N</text>
</g>
</g>
</svg>
